Land_normalized_pl10_filtered_grf
version=1
nRows=10
nColumns=37
inDegrees=yes
endheader
time		1_ground_force_vx		1_ground_force_vy		1_ground_force_vz		1_ground_force_px		1_ground_force_py		1_ground_force_pz		1_ground_torque_x		1_ground_torque_y		1_ground_torque_z		2_ground_force_vx		2_ground_force_vy		2_ground_force_vz		2_ground_force_px		2_ground_force_py		2_ground_force_pz		2_ground_torque_x		2_ground_torque_y		2_ground_torque_z		3_ground_force_vx		3_ground_force_vy		3_ground_force_vz		3_ground_force_px		3_ground_force_py		3_ground_force_pz		3_ground_torque_x		3_ground_torque_y		3_ground_torque_z		4_ground_force_vx		4_ground_force_vy		4_ground_force_vz		4_ground_force_px		4_ground_force_py		4_ground_force_pz		4_ground_torque_x		4_ground_torque_y		4_ground_torque_z		
0.777000		3.045749		-18.542732		-32.507431		0.167304		0.000000		0.042345		-0.019348		0.117793		0.206504		2.175936		-30.239636		-15.452686		-0.202148		0.000000		0.231208		0.090134		-1.252619		-0.640098		0.322015		-0.509259		-1.033385		0.413498		1.262841		1.873508		0.045052		0.003811		0.026390		-2.405155		-1.416421		-2.166358		-0.353175		1.255738		1.900592		0.040247		-0.044435		0.035098		
0.779828		4.550935		-29.803269		-44.132975		0.162111		0.000000		0.068778		-0.023826		0.156019		0.231080		1.264021		-39.982927		-24.162182		-0.215650		0.000000		0.219237		0.059563		-1.885466		-1.139515		0.455696		-0.528654		-1.070106		0.413505		1.262860		1.873573		0.044355		0.002453		0.025261		-2.463403		-1.435965		-2.207280		-0.353188		1.255728		1.900656		0.040826		-0.042358		0.034124		
0.782657		5.739420		-38.967544		-51.491967		0.158698		0.000000		0.083717		-0.023776		0.161425		0.213347		-0.183926		-45.366603		-31.312388		-0.228064		0.000000		0.209013		-0.009387		-2.306488		-1.592044		0.587991		-0.542697		-1.121146		0.413510		1.262878		1.873643		0.043759		0.000840		0.024260		-2.523427		-1.464105		-2.244819		-0.353203		1.255715		1.900726		0.040973		-0.039761		0.033468		
0.785485		6.265331		-43.100645		-51.453958		0.155786		0.000000		0.094680		-0.018772		0.129140		0.154175		-2.081459		-43.443807		-34.857878		-0.243644		0.000000		0.196675		-0.111368		-2.324354		-1.864997		0.705908		-0.547705		-1.181135		0.413513		1.262892		1.873716		0.043287		-0.000965		0.023515		-2.576798		-1.498881		-2.279302		-0.353221		1.255703		1.900808		0.040689		-0.036695		0.033122		
0.788313		5.755495		-38.715637		-40.824784		0.152425		0.000000		0.104503		-0.008530		0.057406		0.060626		-4.219845		-31.179261		-32.486314		-0.273345		0.000000		0.171674		-0.225306		-1.665774		-1.735205		0.797924		-0.542226		-1.243513		0.413515		1.262904		1.873792		0.042914		-0.002851		0.023102		-2.614743		-1.537829		-2.311810		-0.353238		1.255697		1.900897		0.039984		-0.033271		0.033041		
0.791141		3.897024		-22.358921		-17.177383		0.144814		0.000000		0.117047		0.012390		-0.070281		-0.052799		-6.252977		-6.197908		-22.090891		-0.374725		0.000000		0.079900		-0.807299		0.008606		0.019816		0.855975		-0.527629		-1.302549		0.413516		1.262914		1.873870		0.042570		-0.004678		0.023013		-2.629563		-1.578171		-2.344230		-0.353254		1.255700		1.900995		0.038891		-0.029646		0.033152		
0.793970		0.471358		9.235764		20.915026		0.184582		0.000000		0.134689		0.149894		0.177863		-0.024974		-7.715195		33.064309		-1.945553		-0.140897		0.000000		0.296315		0.171649		-0.725247		0.049597		0.875661		-0.507275		-1.355027		0.413516		1.262922		1.873950		0.042159		-0.006323		0.023157		-2.615133		-1.617088		-2.379032		-0.353269		1.255714		1.901101		0.037454		-0.026003		0.033392		
0.796798		-4.577521		58.753772		73.321708		0.156290		0.000000		0.116057		0.002429		-0.031326		-0.039238		-8.035066		86.914354		28.931639		-0.177404		0.000000		0.240436		-0.250917		2.724235		0.909298		0.857111		-0.485713		-1.400855		0.413516		1.262928		1.874031		0.041587		-0.007691		0.023374		-2.567807		-1.651702		-2.418818		-0.353281		1.255740		1.901212		0.035733		-0.022516		0.033717		
0.799626		-11.050232		127.475431		137.672545		0.152762		0.000000		0.126140		-0.010224		0.117913		0.127196		-6.624626		153.808501		70.198752		-0.195546		0.000000		0.225112		-0.287088		6.671053		3.045242		0.806118		-0.467484		-1.442846		0.413515		1.262931		1.874112		0.040787		-0.008758		0.023466		-2.488008		-1.679477		-2.465366		-0.353292		1.255777		1.901324		0.033802		-0.019324		0.034104		
0.802455		-18.505596		215.503443		209.652121		0.150361		0.000000		0.134954		-0.047392		0.551928		0.536854		-2.925985		230.726918		120.275396		-0.205818		0.000000		0.216704		-0.142700		11.257582		5.868579		0.732561		-0.456136		-1.485225		0.413514		1.262935		1.874191		0.039736		-0.009557		0.023243		-2.379669		-1.698532		-2.519068		-0.353300		1.255822		1.901434		0.031745		-0.016506		0.034554		
